<svg width="242" height="450" viewBox="0 0 242 450" fill="none" xmlns="http://www.w3.org/2000/svg">
<path d="M5.64001 213.64L213.64 5.63998C215.127 4.14033 216.897 2.94999 218.847 2.1377C220.797 1.3254 222.888 0.907196 225 0.907196C227.112 0.907196 229.203 1.3254 231.153 2.1377C233.103 2.94999 234.873 4.14033 236.36 5.63998C237.86 7.12739 239.05 8.89699 239.862 10.8467C240.675 12.7965 241.093 14.8878 241.093 17C241.093 19.1122 240.675 21.2035 239.862 23.1532C239.05 25.1029 237.86 26.8725 236.36 28.36L39.56 225L236.36 421.64C239.373 424.653 241.065 428.739 241.065 433C241.065 435.11 240.65 437.199 239.843 439.148C239.035 441.097 237.852 442.868 236.36 444.36C234.868 445.852 233.097 447.035 231.148 447.843C229.199 448.65 227.11 449.065 225 449.065C220.739 449.065 216.653 447.373 213.64 444.36L5.64001 236.36C4.14036 234.873 2.95002 233.103 2.13773 231.153C1.32543 229.203 0.907227 227.112 0.907227 225C0.907227 222.888 1.32543 220.796 2.13773 218.847C2.95002 216.897 4.14036 215.127 5.64001 213.64Z" fill="black"/>
</svg>
