<svg width="242" height="450" viewBox="0 0 242 450" fill="none" xmlns="http://www.w3.org/2000/svg">
<path d="M236.36 236.333L28.36 444.333C26.8726 445.832 25.103 447.023 23.1532 447.835C21.2035 448.647 19.1122 449.065 17 449.065C14.8878 449.065 12.7965 448.647 10.8468 447.835C8.89702 447.023 7.12741 445.832 5.64 444.333C4.14034 442.845 2.95004 441.076 2.13774 439.126C1.32544 437.176 0.907227 435.085 0.907227 432.973C0.907227 430.86 1.32544 428.769 2.13774 426.819C2.95004 424.87 4.14034 423.1 5.64 421.613L202.44 224.973L5.64 28.3327C2.62714 25.3198 0.93454 21.2335 0.93454 16.9727C0.93454 14.8629 1.35007 12.7739 2.15744 10.8247C2.96481 8.87555 4.14818 7.10451 5.64 5.61269C7.13182 4.12088 8.90285 2.9375 10.852 2.13014C12.8012 1.32277 14.8903 0.907227 17 0.907227C21.2608 0.907227 25.3471 2.59983 28.36 5.61269L236.36 213.613C237.86 215.1 239.05 216.87 239.862 218.819C240.675 220.769 241.093 222.86 241.093 224.973C241.093 227.085 240.675 229.176 239.862 231.126C239.05 233.076 237.86 234.845 236.36 236.333Z" fill="black"/>
</svg>
